name rise49.5252peak65.1548fall88.8305.mot
datacolumns 19
datarows 12
range 20.27826000000000 20.29658100000000
endheader
time	ground_force1_vx	ground_force1_vy	ground_force1_vz	ground_force1_px	ground_force1_py	ground_force1_pz	ground_force2_vx	ground_force2_vy	ground_force2_vz	ground_force2_px	ground_force2_py	ground_force2_pz	ground_torque1_x	ground_torque1_y	ground_torque1_z	ground_torque2_x	ground_torque2_y	ground_torque2_z	
20.27826000000000	59.46293300000000	735.59514200000001	56.33485500000000	0.35483700000000	0.00000000000000	0.12056800000000	0.00000000000000	0.00000000000000	0.00000000000000	0.00000000000000	0.00000000000000	0.00000000000000	0.00000000000000	25.41540000000000	0.00000000000000	0.00000000000000	0.00000000000000	0.00000000000000	
20.27991600000000	58.85303200000000	739.15677300000004	56.48828400000000	0.35378500000000	0.00000000000000	0.12058800000000	0.00000000000000	0.00000000000000	0.00000000000000	0.00000000000000	0.00000000000000	0.00000000000000	0.00000000000000	25.52481100000000	0.00000000000000	0.00000000000000	0.00000000000000	0.00000000000000	
20.28158500000000	58.24294600000000	742.63082399999996	56.64118000000000	0.35276000000000	0.00000000000000	0.12060800000000	0.00000000000000	0.00000000000000	0.00000000000000	0.00000000000000	0.00000000000000	0.00000000000000	0.00000000000000	25.63614400000000	0.00000000000000	0.00000000000000	0.00000000000000	0.00000000000000	
20.28325000000000	57.63305700000000	746.01341100000002	56.79326000000000	0.35176300000000	0.00000000000000	0.12062700000000	0.00000000000000	0.00000000000000	0.00000000000000	0.00000000000000	0.00000000000000	0.00000000000000	0.00000000000000	25.74915400000000	0.00000000000000	0.00000000000000	0.00000000000000	0.00000000000000	
20.28491600000000	57.02368200000000	749.30064500000003	56.94417500000000	0.35079300000000	0.00000000000000	0.12064600000000	0.00000000000000	0.00000000000000	0.00000000000000	0.00000000000000	0.00000000000000	0.00000000000000	0.00000000000000	25.86354600000000	0.00000000000000	0.00000000000000	0.00000000000000	0.00000000000000	
20.28659200000000	56.41508000000000	752.48865400000000	57.09351100000000	0.34984800000000	0.00000000000000	0.12066400000000	0.00000000000000	0.00000000000000	0.00000000000000	0.00000000000000	0.00000000000000	0.00000000000000	0.00000000000000	25.97898600000000	0.00000000000000	0.00000000000000	0.00000000000000	0.00000000000000	
20.28824900000000	55.80745500000000	755.57360300000005	57.24079600000000	0.34892700000000	0.00000000000000	0.12068200000000	0.00000000000000	0.00000000000000	0.00000000000000	0.00000000000000	0.00000000000000	0.00000000000000	0.00000000000000	26.09509400000000	0.00000000000000	0.00000000000000	0.00000000000000	0.00000000000000	
20.28991500000000	55.20095800000000	758.55171099999995	57.38550500000000	0.34802900000000	0.00000000000000	0.12069900000000	0.00000000000000	0.00000000000000	0.00000000000000	0.00000000000000	0.00000000000000	0.00000000000000	0.00000000000000	26.21145900000000	0.00000000000000	0.00000000000000	0.00000000000000	0.00000000000000	
20.29158000000000	54.59569000000000	761.41927499999997	57.52706500000000	0.34715200000000	0.00000000000000	0.12071600000000	0.00000000000000	0.00000000000000	0.00000000000000	0.00000000000000	0.00000000000000	0.00000000000000	0.00000000000000	26.32763500000000	0.00000000000000	0.00000000000000	0.00000000000000	0.00000000000000	
20.29325800000000	53.99170900000000	764.17268400000000	57.66486300000000	0.34629600000000	0.00000000000000	0.12073200000000	0.00000000000000	0.00000000000000	0.00000000000000	0.00000000000000	0.00000000000000	0.00000000000000	0.00000000000000	26.44314800000000	0.00000000000000	0.00000000000000	0.00000000000000	0.00000000000000	
20.29491500000000	53.38902900000000	766.80844300000001	57.79825000000000	0.34545800000000	0.00000000000000	0.12074800000000	0.00000000000000	0.00000000000000	0.00000000000000	0.00000000000000	0.00000000000000	0.00000000000000	0.00000000000000	26.55749800000000	0.00000000000000	0.00000000000000	0.00000000000000	0.00000000000000	
20.29658100000000	52.78762800000000	769.32318799999996	57.92655000000000	0.34463700000000	0.00000000000000	0.12076300000000	0.00000000000000	0.00000000000000	0.00000000000000	0.00000000000000	0.00000000000000	0.00000000000000	0.00000000000000	26.67016800000000	0.00000000000000	0.00000000000000	0.00000000000000	0.00000000000000	
